<?xml version="1.0" encoding="UTF-8"?>
<svg id="Layer_2" data-name="Layer 2" xmlns="http://www.w3.org/2000/svg" viewBox="0 0 835.85 255.14">
  <defs>
    <style>
      .cls-1 {
        fill: #f9600b;
      }

      .cls-2 {
        fill: #0a0a0a;
      }
    </style>
  </defs>
  <g id="Layer_2-2" data-name="Layer 2">
    <g id="Logo">
      <g>
        <path class="cls-2" d="m289.9,72.95c-16.67,0-29.07,4.76-41.34,15.28-11.5,9.86-16.32,28.15-18.41,43.08l-6.95-1.04c2.09-14.93-4.46-38.49-11.68-44.85-9.45-8.31-19.82-12.45-36.14-12.45-18.08,0-29.17,1.77-41.84,12.7-9.99,8.63-16.04,30.79-17.79,45.47l-6.44-.86c4.17-14.59,7.62-34.8,7.62-50.08v-2.09l-27.47.06v173.68h36.47v-96.23c0-36.13,13.56-52.45,41.34-52.45,25.71,0,37.86,15.98,37.86,52.45v96.23h36.47v-96.23c0-36.13,11.47-52.45,38.56-52.45,25.02,0,36.82,15.98,36.82,52.45v96.23h36.47v-119.14c0-39.6-27.43-59.75-63.56-59.75h0Z"/>
        <path class="cls-2" d="m552.78,174.89v-12.32c.18-23.53-8.54-45.36-24.55-61.49-16.79-16.91-39.72-25.86-66.28-25.86-54.23,0-93.6,37.32-93.6,88.74,0,25.46,9.21,48.37,25.92,64.5,18.08,17.46,44.12,26.68,75.32,26.68,50.21,0,72.74-34.25,78.56-50.7h-36.02c-5.03,11.49-21.01,23.28-45.66,23.28-41.57,0-60.28-29.57-60.28-50.56v-2.27h146.59Zm-146.24-24.47c0-23.82,21.46-49.52,56.11-49.52,30.7,0,53,20.83,53,49.52v2.27h-109.1v-2.27h0Z"/>
        <path class="cls-2" d="m740.95,72.65c-56.76,0-94.9,36.32-94.9,90.38,0,26.75,9.05,49.71,26.15,66.43,17.2,16.79,40.98,25.68,68.75,25.68s51.33-9.1,68.75-26.33c16.87-16.69,26.15-40.06,26.15-65.78,0-53.21-39.01-90.38-94.9-90.38h0Zm0,149.37c-36.72,0-58.65-22.05-58.65-59s21.93-57.26,58.65-57.26,58.65,21.4,58.65,57.26c0,28.52-15.4,59-58.65,59Z"/>
        <circle class="cls-1" cx="29.82" cy="221.97" r="29.82"/>
        <path class="cls-2" d="m625.36,217.45c-15.63,0-20.84-4.17-20.84-18.41V0h-36.82v209.82c0,28.13,8.66,42.02,55.93,42.02h23.97v-34.39h-22.24,0Z"/>
      </g>
    </g>
  </g>
</svg>